<?xml version="1.0" standalone="no"?>
<!DOCTYPE svg PUBLIC "-//W3C//DTD SVG 20010904//EN"
 "http://www.w3.org/TR/2001/REC-SVG-20010904/DTD/svg10.dtd">
<svg version="1.0" xmlns="http://www.w3.org/2000/svg"
 width="77.000000pt" height="70.000000pt" viewBox="0 0 77.000000 70.000000"
 preserveAspectRatio="xMidYMid meet">

<g transform="translate(0.000000,70.000000) scale(0.100000,-0.100000)"
fill="#000000" stroke="none">
<path d="M293 646 c-137 -45 -224 -166 -225 -316 -1 -119 68 -222 180 -273 65
-28 184 -35 250 -13 89 30 163 111 190 209 10 35 9 37 -13 37 -17 0 -25 -7
-29 -27 -12 -50 -74 -131 -119 -157 -192 -113 -436 42 -414 261 3 30 18 75 33
104 72 132 229 179 369 110 61 -30 115 -44 115 -31 0 11 -59 54 -110 80 -55
29 -165 36 -227 16z"/>
<path d="M290 528 l-45 -23 -3 -77 c-2 -65 0 -78 13 -78 12 0 15 13 15 60 0
57 2 61 33 80 20 13 50 20 80 20 49 0 117 -24 117 -41 0 -5 9 -9 20 -9 25 0
26 28 3 47 -62 48 -161 57 -233 21z"/>
<path d="M393 373 c-3 -7 -3 -16 -1 -19 3 -2 62 -3 131 -2 94 2 124 6 119 15
-5 7 -50 13 -125 16 -97 4 -119 2 -124 -10z"/>
<path d="M507 232 c-4 -19 -17 -33 -42 -45 -48 -23 -83 -21 -138 6 -31 16 -51
21 -62 15 -20 -12 -12 -24 33 -47 77 -39 159 -35 216 10 19 15 26 30 26 55 0
42 -25 47 -33 6z"/>
</g>
</svg>
