<svg width="84" height="85" viewBox="0 0 84 85" fill="none" xmlns="http://www.w3.org/2000/svg">
<path d="M30.0669 2.20001C11.8002 8.20001 0.200193 24.3333 0.0668596 44.3333C-0.0664738 60.2 9.13353 73.9333 24.0669 80.7333C32.7335 84.4667 48.6002 85.4 57.4002 82.4667C69.2669 78.4667 79.1335 67.6667 82.7335 54.6C84.0669 49.9333 83.9335 49.6667 81.0002 49.6667C78.7335 49.6667 77.6669 50.6 77.1335 53.2667C75.5335 59.9333 67.2669 70.7333 61.2669 74.2C35.6669 89.2667 3.13353 68.6 6.06686 39.4C6.46686 35.4 8.46686 29.4 10.4669 25.5333C20.0669 7.93335 41.0002 1.66668 59.6669 10.8667C67.8002 14.8667 75.0002 16.7333 75.0002 15C75.0002 13.5333 67.1335 7.80001 60.3335 4.33335C53.0002 0.466679 38.3335 -0.466655 30.0669 2.20001Z" fill="black"/>
<path d="M29.667 17.9334L23.667 21.0001L23.267 31.2667C23.0004 39.9334 23.267 41.6667 25.0004 41.6667C26.6004 41.6667 27.0004 39.9334 27.0004 33.6667C27.0004 26.0667 27.267 25.5334 31.4004 23.0001C34.067 21.2667 38.067 20.3334 42.067 20.3334C48.6004 20.3334 57.667 23.5334 57.667 25.8001C57.667 26.4667 58.867 27.0001 60.3337 27.0001C63.667 27.0001 63.8004 23.2667 60.7337 20.7334C52.467 14.3334 39.267 13.1334 29.667 17.9334Z" fill="black"/>
<path d="M43.4002 38.6001C43.0002 39.5334 43.0002 40.7334 43.2669 41.1334C43.6669 41.4001 51.5336 41.5334 60.7336 41.4001C73.2669 41.1334 77.2669 40.6001 76.6002 39.4001C75.9336 38.4668 69.9336 37.6668 59.9336 37.2668C47.0002 36.7334 44.0669 37.0001 43.4002 38.6001Z" fill="black"/>
<path d="M58.6004 57.4001C58.067 59.9334 56.3337 61.8001 53.0004 63.4001C46.6004 66.4667 41.9337 66.2001 34.6004 62.6001C30.467 60.4667 27.8004 59.8001 26.3337 60.6001C23.667 62.2001 24.7337 63.8001 30.7337 66.8667C41.0004 72.0667 51.9337 71.5334 59.5337 65.5334C62.067 63.5334 63.0004 61.5334 63.0004 58.2001C63.0004 52.6001 59.667 51.9334 58.6004 57.4001Z" fill="black"/>
</svg>
